<?xml version="1.0" encoding="UTF-8"?>
<svg version="1.1" xmlns="http://www.w3.org/2000/svg" width="310" height="310">
<path d="M0 0 C2.44714638 1.16474756 4.68444727 2.36492296 7 3.75 C7.68787598 4.14904541 8.37575195 4.54809082 9.08447266 4.95922852 C10.59025603 5.83284968 12.09357356 6.71073131 13.59472656 7.59228516 C17.83553461 10.07426843 22.10741455 12.50195091 26.375 14.9375 C27.27138184 15.45046631 28.16776367 15.96343262 29.09130859 16.49194336 C38.72147242 21.99874251 48.42531789 27.36923596 58.13623047 32.73193359 C81.91695011 45.87039598 81.91695011 45.87039598 92.125 51.875 C92.82310791 52.28556641 93.52121582 52.69613281 94.24047852 53.11914062 C98.86171305 55.86171305 98.86171305 55.86171305 100 57 C100.11863792 58.48078359 100.16898802 59.96710124 100.19186401 61.45245361 C100.20887863 62.41423019 100.22589325 63.37600677 100.24342346 64.3669281 C100.25703415 65.43081253 100.27064484 66.49469696 100.28466797 67.59082031 C100.30259903 68.70459549 100.32053009 69.81837067 100.33900452 70.96589661 C100.39635502 74.66991201 100.4453154 78.37396277 100.4921875 82.078125 C100.50854374 83.33971184 100.52489998 84.60129868 100.54175186 85.90111542 C100.6093148 91.20253112 100.67475631 96.50395186 100.73234367 101.80548477 C100.81502028 109.40599585 100.91473578 117.00584032 101.03843391 124.60579801 C101.13431324 130.59157302 101.20255446 136.57735213 101.26114273 142.56362152 C101.29012363 145.11065533 101.32772055 147.65760598 101.37401962 150.20438385 C101.43686867 153.76698866 101.4681196 157.3285506 101.49169922 160.89160156 C101.51745529 161.94738907 101.54321136 163.00317657 101.56974792 164.09095764 C101.5704525 171.25698538 101.5704525 171.25698538 98.62734985 175.09037781 C96.06654773 176.95163148 93.56081343 178.61321657 90.78125 180.12890625 C89.77779541 180.68247803 88.77434082 181.2360498 87.74047852 181.80639648 C86.67112061 182.38591064 85.6017627 182.9654248 84.5 183.5625 C82.22743363 184.81432212 79.95530442 186.06693818 77.68359375 187.3203125 C76.55163574 187.94196289 75.41967773 188.56361328 74.25341797 189.20410156 C69.66405694 191.73744538 65.10976483 194.32954255 60.5625 196.9375 C59.72952393 197.41429199 58.89654785 197.89108398 58.03833008 198.38232422 C49.7933052 203.10737873 41.56775758 207.86628465 33.34057617 212.62231445 C26.57215641 216.53062427 19.78918943 220.40949315 12.94824219 224.18969727 C9.65415896 226.01989277 6.52948402 227.9740546 3.4375 230.125 C-0.84718937 232.4621033 -2.30466419 232.11192544 -7 231 C-9.76160415 229.7303134 -12.30117854 228.1741565 -14.875 226.5625 C-16.3931112 225.64173256 -17.91134357 224.72116486 -19.4296875 223.80078125 C-20.57775879 223.09622803 -20.57775879 223.09622803 -21.74902344 222.37744141 C-25.14509025 220.29928425 -28.56927088 218.27028123 -32 216.25 C-32.68416992 215.8463623 -33.36833984 215.44272461 -34.07324219 215.02685547 C-42.48949651 210.08737437 -51.02443933 205.35839042 -59.546875 200.60546875 C-66.75834384 196.58251491 -73.94467397 192.51560409 -81.12548828 188.43823242 C-81.99931152 187.94299072 -82.87313477 187.44774902 -83.7734375 186.9375 C-85.05492676 186.21046875 -85.05492676 186.21046875 -86.36230469 185.46875 C-88.19533742 184.44806091 -90.04083522 183.44956842 -91.89550781 182.46875 C-93.32781738 181.71078125 -93.32781738 181.71078125 -94.7890625 180.9375 C-95.6445166 180.49277344 -96.4999707 180.04804688 -97.38134766 179.58984375 C-104.15001707 175.48042969 -104.15001707 175.48042969 -106 173 C-106.89916409 169.32136345 -106.80971692 165.71079512 -106.76049805 161.93920898 C-106.76940567 160.82324341 -106.77831329 159.70727783 -106.78749084 158.55749512 C-106.80879631 154.86976619 -106.78645342 151.18378008 -106.76171875 147.49609375 C-106.76322075 144.9344922 -106.76664974 142.37289111 -106.77192688 139.81129456 C-106.77626051 134.44368587 -106.76002634 129.07669551 -106.72729492 123.70922852 C-106.68978246 117.50650571 -106.69158847 111.30473179 -106.7143361 105.10195869 C-106.73529281 99.12979592 -106.72791429 93.15792493 -106.70801735 87.18574715 C-106.70216023 84.64637951 -106.7034806 82.106985 -106.71204185 79.56762505 C-106.72001592 76.02160366 -106.69583631 72.47724148 -106.6628418 68.93139648 C-106.67139191 67.87829788 -106.67994202 66.82519928 -106.68875122 65.7401886 C-106.57419287 58.62168781 -106.57419287 58.62168781 -103.60241699 55.40409851 C-102.74361938 54.940746 -101.88482178 54.47739349 -101 54 C-100.24050049 53.53899902 -99.48100098 53.07799805 -98.69848633 52.60302734 C-97.91755615 52.1848877 -97.13662598 51.76674805 -96.33203125 51.3359375 C-95.44870117 50.85922607 -94.56537109 50.38251465 -93.65527344 49.89135742 C-92.7171582 49.39095947 -91.77904297 48.89056152 -90.8125 48.375 C-88.81353128 47.29607449 -86.81483665 46.21664104 -84.81640625 45.13671875 C-83.33164795 44.33693604 -83.33164795 44.33693604 -81.81689453 43.52099609 C-69.50740433 36.87442615 -57.37966442 29.92465955 -45.27807617 22.90820312 C-35.76272568 17.40608713 -26.16937198 12.05260904 -16.54321289 6.74731445 C-15.4680542 6.15394287 -14.39289551 5.56057129 -13.28515625 4.94921875 C-12.33519775 4.42674561 -11.38523926 3.90427246 -10.40649414 3.3659668 C-3.6387512 -0.47551862 -3.6387512 -0.47551862 0 0 Z " fill="#160C26" transform="translate(158,44)"/>
<path d="M0 0 C2.44714638 1.16474756 4.68444727 2.36492296 7 3.75 C7.68787598 4.14904541 8.37575195 4.54809082 9.08447266 4.95922852 C10.59025603 5.83284968 12.09357356 6.71073131 13.59472656 7.59228516 C17.83553461 10.07426843 22.10741455 12.50195091 26.375 14.9375 C27.27138184 15.45046631 28.16776367 15.96343262 29.09130859 16.49194336 C38.72147242 21.99874251 48.42531789 27.36923596 58.13623047 32.73193359 C81.91695011 45.87039598 81.91695011 45.87039598 92.125 51.875 C92.82310791 52.28556641 93.52121582 52.69613281 94.24047852 53.11914062 C98.86171305 55.86171305 98.86171305 55.86171305 100 57 C100.11863792 58.48078359 100.16898802 59.96710124 100.19186401 61.45245361 C100.20887863 62.41423019 100.22589325 63.37600677 100.24342346 64.3669281 C100.25703415 65.43081253 100.27064484 66.49469696 100.28466797 67.59082031 C100.30259903 68.70459549 100.32053009 69.81837067 100.33900452 70.96589661 C100.39635502 74.66991201 100.4453154 78.37396277 100.4921875 82.078125 C100.50854374 83.33971184 100.52489998 84.60129868 100.54175186 85.90111542 C100.6093148 91.20253112 100.67475631 96.50395186 100.73234367 101.80548477 C100.81502028 109.40599585 100.91473578 117.00584032 101.03843391 124.60579801 C101.13431324 130.59157302 101.20255446 136.57735213 101.26114273 142.56362152 C101.29012363 145.11065533 101.32772055 147.65760598 101.37401962 150.20438385 C101.43686867 153.76698866 101.4681196 157.3285506 101.49169922 160.89160156 C101.51745529 161.94738907 101.54321136 163.00317657 101.56974792 164.09095764 C101.5704525 171.25698538 101.5704525 171.25698538 98.62734985 175.09037781 C96.06654773 176.95163148 93.56081343 178.61321657 90.78125 180.12890625 C89.77779541 180.68247803 88.77434082 181.2360498 87.74047852 181.80639648 C86.67112061 182.38591064 85.6017627 182.9654248 84.5 183.5625 C82.22743363 184.81432212 79.95530442 186.06693818 77.68359375 187.3203125 C76.55163574 187.94196289 75.41967773 188.56361328 74.25341797 189.20410156 C69.66405694 191.73744538 65.10976483 194.32954255 60.5625 196.9375 C59.72952393 197.41429199 58.89654785 197.89108398 58.03833008 198.38232422 C49.7933052 203.10737873 41.56775758 207.86628465 33.34057617 212.62231445 C26.57215641 216.53062427 19.78918943 220.40949315 12.94824219 224.18969727 C9.65415896 226.01989277 6.52948402 227.9740546 3.4375 230.125 C-0.84718937 232.4621033 -2.30466419 232.11192544 -7 231 C-9.76160415 229.7303134 -12.30117854 228.1741565 -14.875 226.5625 C-16.3931112 225.64173256 -17.91134357 224.72116486 -19.4296875 223.80078125 C-20.57775879 223.09622803 -20.57775879 223.09622803 -21.74902344 222.37744141 C-25.14509025 220.29928425 -28.56927088 218.27028123 -32 216.25 C-32.68416992 215.8463623 -33.36833984 215.44272461 -34.07324219 215.02685547 C-42.48949651 210.08737437 -51.02443933 205.35839042 -59.546875 200.60546875 C-66.75834384 196.58251491 -73.94467397 192.51560409 -81.12548828 188.43823242 C-81.99931152 187.94299072 -82.87313477 187.44774902 -83.7734375 186.9375 C-85.05492676 186.21046875 -85.05492676 186.21046875 -86.36230469 185.46875 C-88.19533742 184.44806091 -90.04083522 183.44956842 -91.89550781 182.46875 C-93.32781738 181.71078125 -93.32781738 181.71078125 -94.7890625 180.9375 C-95.6445166 180.49277344 -96.4999707 180.04804688 -97.38134766 179.58984375 C-104.15001707 175.48042969 -104.15001707 175.48042969 -106 173 C-106.89916409 169.32136345 -106.80971692 165.71079512 -106.76049805 161.93920898 C-106.76940567 160.82324341 -106.77831329 159.70727783 -106.78749084 158.55749512 C-106.80879631 154.86976619 -106.78645342 151.18378008 -106.76171875 147.49609375 C-106.76322075 144.9344922 -106.76664974 142.37289111 -106.77192688 139.81129456 C-106.77626051 134.44368587 -106.76002634 129.07669551 -106.72729492 123.70922852 C-106.68978246 117.50650571 -106.69158847 111.30473179 -106.7143361 105.10195869 C-106.73529281 99.12979592 -106.72791429 93.15792493 -106.70801735 87.18574715 C-106.70216023 84.64637951 -106.7034806 82.106985 -106.71204185 79.56762505 C-106.72001592 76.02160366 -106.69583631 72.47724148 -106.6628418 68.93139648 C-106.67139191 67.87829788 -106.67994202 66.82519928 -106.68875122 65.7401886 C-106.57419287 58.62168781 -106.57419287 58.62168781 -103.60241699 55.40409851 C-102.74361938 54.940746 -101.88482178 54.47739349 -101 54 C-100.24050049 53.53899902 -99.48100098 53.07799805 -98.69848633 52.60302734 C-97.91755615 52.1848877 -97.13662598 51.76674805 -96.33203125 51.3359375 C-95.44870117 50.85922607 -94.56537109 50.38251465 -93.65527344 49.89135742 C-92.7171582 49.39095947 -91.77904297 48.89056152 -90.8125 48.375 C-88.81353128 47.29607449 -86.81483665 46.21664104 -84.81640625 45.13671875 C-83.33164795 44.33693604 -83.33164795 44.33693604 -81.81689453 43.52099609 C-69.50740433 36.87442615 -57.37966442 29.92465955 -45.27807617 22.90820312 C-35.76272568 17.40608713 -26.16937198 12.05260904 -16.54321289 6.74731445 C-15.4680542 6.15394287 -14.39289551 5.56057129 -13.28515625 4.94921875 C-12.33519775 4.42674561 -11.38523926 3.90427246 -10.40649414 3.3659668 C-3.6387512 -0.47551862 -3.6387512 -0.47551862 0 0 Z M-11.625 26.625 C-13.06210626 27.44990509 -14.49963604 28.27407259 -15.9375 29.09765625 C-17.13439453 29.78625732 -17.13439453 29.78625732 -18.35546875 30.48876953 C-23.42370811 33.38503999 -28.52797624 36.21730477 -33.625 39.0625 C-41.34828161 43.38274824 -49.05743167 47.72389107 -56.73046875 52.1328125 C-59.18556407 53.53488605 -61.64565108 54.92499845 -64.11328125 56.3046875 C-65.17663696 56.89963013 -65.17663696 56.89963013 -66.26147461 57.5065918 C-67.61418185 58.26240154 -68.96777841 59.01662318 -70.32250977 59.76879883 C-71.54237527 60.45056723 -72.75618093 61.1433468 -73.96224213 61.84924793 C-76 63 -76 63 -78.08809662 63.98291302 C-82.29776199 66.10693232 -82.29776199 66.10693232 -84.72312927 69.95444679 C-84.98710338 72.40232948 -84.99041229 74.73561228 -84.90820312 77.1965332 C-84.90937134 78.11409897 -84.91053955 79.03166473 -84.91174316 79.97703552 C-84.9061792 83.00316959 -84.84400937 86.02533801 -84.78125 89.05078125 C-84.76632541 91.1511164 -84.75493942 93.25147944 -84.74694824 95.35185242 C-84.71643163 100.8747372 -84.63787135 106.39593338 -84.54931641 111.91815186 C-84.46741545 117.55522822 -84.4309276 123.19257803 -84.390625 128.83007812 C-84.30487779 139.88745987 -84.16837537 150.94358942 -84 162 C-83.43945419 162.32031189 -82.87890839 162.64062378 -82.30137634 162.97064209 C-80.62308248 163.92966715 -78.94478861 164.88869222 -77.26649475 165.84771729 C-76.32132492 166.38781433 -75.37615509 166.92791138 -74.40234375 167.484375 C-68.61764526 170.78991699 -62.83294678 174.09545898 -57.04824829 177.40100098 C-56.19098648 177.89086487 -56.19098648 177.89086487 -55.31640625 178.390625 C-41.75390625 186.140625 -41.75390625 186.140625 -38.40649414 188.05493164 C-36.05837473 189.3956804 -33.70886252 190.73366048 -31.35717773 192.06811523 C-26.22783398 194.98240025 -21.10695362 197.8983051 -16.08984375 201.00390625 C-15.39052734 201.43380859 -14.69121094 201.86371094 -13.97070312 202.30664062 C-12.57403476 203.1693282 -11.18369455 204.04231954 -9.79882812 204.92382812 C-9.11111328 205.34212891 -8.42339844 205.76042969 -7.71484375 206.19140625 C-7.11792725 206.56467041 -6.52101074 206.93793457 -5.90600586 207.32250977 C-3.21324158 208.27965347 -1.72103616 207.83888757 1 207 C3.01752202 205.99870615 4.99699654 204.9191286 6.9453125 203.7890625 C7.50809402 203.4652359 8.07087555 203.1414093 8.65071106 202.80776978 C10.47937599 201.75343748 12.30213932 200.68933031 14.125 199.625 C15.39619713 198.88966186 16.66776603 198.15496605 17.93969727 197.42089844 C21.07021237 195.61222625 24.19625595 193.79599568 27.32073975 191.97692871 C29.65552634 190.61864011 31.99361066 189.26608315 34.33203125 187.9140625 C36.61166389 186.59586581 38.89090938 185.27705081 41.16821289 183.95483398 C47.96459644 180.00943476 54.78943356 176.11435074 61.62280273 172.23339844 C63.21973594 171.3241059 64.80522067 170.3942591 66.37567139 169.43995667 C69 168 69 168 71.63191223 167.15519714 C74.96745874 165.8662185 76.69053018 164.76489897 79 162 C80.9392766 155.25743501 80.15672805 147.78174339 79.9765625 140.8515625 C79.95790299 138.75266897 79.94367227 136.65373177 79.9336853 134.55477905 C79.89556701 129.03968292 79.79739749 123.52723558 79.68664551 118.01318359 C79.58420576 112.38285152 79.53864639 106.75208982 79.48828125 101.12109375 C79.38114708 90.07956757 79.21055772 79.04000433 79 68 C76.76154552 66.72017205 74.52300835 65.44048912 72.28442383 64.16088867 C71.65482002 63.80089531 71.02521622 63.44090195 70.37653351 63.06999969 C65.82293137 60.46731751 61.26132885 57.87949447 56.6875 55.3125 C56.06294922 54.96123047 55.43839844 54.60996094 54.79492188 54.24804688 C51.43556544 52.360343 48.07021658 50.48402337 44.69921875 48.6171875 C41.37357631 46.7716562 38.06221918 44.90281725 34.7578125 43.01953125 C25.31204462 37.63684491 15.84707567 32.2967682 6.25 27.1875 C5.45867676 26.76122314 4.66735352 26.33494629 3.85205078 25.89575195 C3.12228027 25.5112085 2.39250977 25.12666504 1.640625 24.73046875 C1.00672852 24.39426514 0.37283203 24.05806152 -0.28027344 23.71166992 C-4.74978952 21.86206183 -7.85497504 24.41973911 -11.625 26.625 Z " fill="#9D50E9" transform="translate(158,44)"/>
<path d="M0 0 C3.39706451 1.60846588 6.66514954 3.40265395 9.9375 5.25 C10.895354 5.78214111 11.85320801 6.31428223 12.84008789 6.86254883 C15.89868623 8.56574782 18.9495782 10.28220709 22 12 C25.00091296 13.67786226 28.00227828 15.35491137 31.00390625 17.03149414 C32.95454903 18.13262679 34.89739882 19.24768387 36.83203125 20.37670898 C41.07724533 22.85198293 45.20737064 25.16590789 49.78125 26.9765625 C57.79176742 30.37051134 57.79176742 30.37051134 60 34 C61.7935572 42.01927016 60.66818868 49.84809806 60 58 C52.08 58 44.16 58 36 58 C36 54.7 36 51.4 36 48 C34.02 47.505 34.02 47.505 32 47 C30.71151548 46.3871575 29.44467649 45.72738456 28.19921875 45.03125 C27.11459351 44.4278479 27.11459351 44.4278479 26.00805664 43.81225586 C25.24227295 43.37921143 24.47648926 42.94616699 23.6875 42.5 C22.50111938 41.8359314 22.50111938 41.8359314 21.29077148 41.15844727 C15.35186493 37.81480305 9.48810928 34.35420162 3.68432617 30.78125 C1.13115856 29.21909338 -1.14715164 27.95094945 -4 27 C-5.91813242 27.73536622 -5.91813242 27.73536622 -7.88671875 28.9921875 C-8.65314697 29.4461792 -9.4195752 29.9001709 -10.20922852 30.36791992 C-11.02705811 30.86525635 -11.8448877 31.36259277 -12.6875 31.875 C-14.3979686 32.89011343 -16.10891478 33.90442253 -17.8203125 34.91796875 C-18.68301758 35.43278809 -19.54572266 35.94760742 -20.43457031 36.47802734 C-24.28404153 38.7617734 -28.16706507 40.98331991 -32.0625 43.1875 C-32.73434326 43.57341309 -33.40618652 43.95932617 -34.09838867 44.35693359 C-38.76723837 47 -38.76723837 47 -41 47 C-41.33 63.17 -41.66 79.34 -42 96 C-40.35 96.66 -38.7 97.32 -37 98 C-35.34351656 98.90987574 -33.70594739 99.85479093 -32.0859375 100.828125 C-31.15910156 101.38113281 -30.23226562 101.93414062 -29.27734375 102.50390625 C-28.31957031 103.08011719 -27.36179688 103.65632813 -26.375 104.25 C-23.54600187 105.94739888 -20.71427842 107.63866111 -17.87011719 109.31054688 C-15.90712304 110.46603509 -13.95502041 111.64017383 -12.01269531 112.83007812 C-11.05202148 113.39662109 -10.09134766 113.96316406 -9.1015625 114.546875 C-8.24127441 115.06604492 -7.38098633 115.58521484 -6.49462891 116.12011719 C-4.02895499 117.25146765 -4.02895499 117.25146765 -1.55175781 116.36181641 C1.30414837 114.83768278 4.13114825 113.29200568 6.9296875 111.6640625 C8.61771484 110.68566406 8.61771484 110.68566406 10.33984375 109.6875 C11.51828824 109.00010127 12.69667324 108.31260053 13.875 107.625 C15.04539127 106.94499976 16.21596269 106.26530949 17.38671875 105.5859375 C19.07861328 104.60367188 19.07861328 104.60367188 20.8046875 103.6015625 C21.88331055 102.97540039 22.96193359 102.34923828 24.07324219 101.70410156 C25.82208911 100.68583734 27.56845014 99.66325639 29.30957031 98.63183594 C33.7871696 96 33.7871696 96 36 96 C36 92.7 36 89.4 36 86 C43.92 86 51.84 86 60 86 C60.2165625 91.5378125 60.2165625 91.5378125 60.4375 97.1875 C60.50122803 98.3427417 60.56495605 99.4979834 60.63061523 100.68823242 C60.68545965 103.57881118 60.59077526 106.16677882 60 109 C57.46652361 111.61186806 56.16458765 112.52577348 53 114 C52.09958984 114.4539917 51.19917969 114.9079834 50.27148438 115.37573242 C48.23689897 116.39718345 46.19570937 117.40556046 44.14892578 118.40234375 C39.06808847 120.98018523 34.26903155 123.98728189 29.4375 127 C22.86299836 131.08287695 16.26841977 135.02243048 9.43139648 138.65283203 C6.44623857 140.30682353 3.64484248 142.160661 0.8515625 144.1171875 C-1.68767664 145.32787958 -3.20325888 145.37838262 -6 145 C-8.9453125 143.4609375 -8.9453125 143.4609375 -12.125 141.375 C-13.27982695 140.6331966 -14.43610076 139.89364121 -15.59375 139.15625 C-16.16738281 138.78886719 -16.74101562 138.42148438 -17.33203125 138.04296875 C-21.43038201 135.48029977 -25.73658523 133.27215663 -30 131 C-46.02484168 122.35845574 -46.02484168 122.35845574 -52.89398193 118.15753174 C-55.08812205 116.89281898 -55.08812205 116.89281898 -57.9385376 115.84783936 C-61.5386456 114.23812901 -64.13439266 112.72642037 -67 110 C-68.8842347 104.38651764 -68.81475539 98.91881466 -68.76953125 93.04296875 C-68.79034328 91.37295421 -68.81396513 89.70297256 -68.84025574 88.03303528 C-68.88042845 84.53765901 -68.87487925 81.0459292 -68.83911133 77.55053711 C-68.80678387 73.97635831 -68.84138834 70.41348404 -68.94165039 66.84057617 C-69.73647822 38.36391315 -69.73647822 38.36391315 -65.41900635 31.47875977 C-61.57088742 27.7632342 -57.21046373 26.05960454 -52.12045288 24.63894653 C-49.14169599 23.74137111 -46.68149586 22.23361397 -44.046875 20.6015625 C-41.32040782 19.06543282 -38.59044087 17.53569864 -35.85961914 16.00732422 C-30.89309729 13.22083761 -25.95944041 10.39583559 -21.07421875 7.46875 C-20.12643555 6.90720215 -19.17865234 6.3456543 -18.20214844 5.76708984 C-16.40168135 4.69768489 -14.60885852 3.61526933 -12.82519531 2.51806641 C-5.21050776 -1.97408413 -5.21050776 -1.97408413 0 0 Z " fill="#9F51EB" transform="translate(159,87)"/>
<path d="M0 0 C0.33 0 0.66 0 1 0 C1.01030746 0.96210892 1.02061493 1.92421783 1.03123474 2.91548157 C1.13069916 12.16107275 1.23353158 21.40662171 1.33933926 30.65214252 C1.39358444 35.40081038 1.44680071 40.14948423 1.49731445 44.89819336 C1.75751248 69.27500777 2.19861675 93.63461431 3 118 C3.94633301 118.30341309 4.89266602 118.60682617 5.86767578 118.91943359 C9.94324266 120.32539299 12.58265236 122.40281579 16 125 C12.95549846 125 11.83393534 124.63310777 9.1875 123.3125 C8.54167969 122.99925781 7.89585938 122.68601562 7.23046875 122.36328125 C6.49441406 121.91339844 5.75835937 121.46351563 5 121 C3.97837265 120.37599304 2.9567453 119.75198608 1.90415955 119.10906982 C-0.15768718 117.35308778 -0.91218755 116.36726982 -1.54759026 113.70973969 C-1.74752089 110.75489239 -1.75311862 107.85284397 -1.69702148 104.89160156 C-1.69950394 103.77081711 -1.70198639 102.65003265 -1.70454407 101.49528503 C-1.70546194 97.79304356 -1.66366029 94.09260126 -1.62109375 90.390625 C-1.61244048 87.82184552 -1.60629403 85.25305647 -1.60255432 82.68426514 C-1.58883805 77.30403856 -1.55682714 71.92444217 -1.50756836 66.54443359 C-1.43806764 58.94846177 -1.40880577 51.35271904 -1.38716781 43.75648165 C-1.3688897 37.8636621 -1.3392902 31.9708912 -1.30859375 26.078125 C-1.30216795 24.81498726 -1.29574215 23.55184952 -1.28912163 22.25043488 C-1.2682456 18.69715433 -1.23995279 15.14402334 -1.20874023 11.59082031 C-1.20290924 10.52693588 -1.19707825 9.46305145 -1.19107056 8.3669281 C-1.18102493 7.40515152 -1.17097931 6.44337494 -1.16062927 5.45245361 C-1.15375815 4.61181995 -1.14688704 3.77118629 -1.1398077 2.90507889 C-1 1 -1 1 0 0 Z " fill="#44206E" transform="translate(53,101)"/>
<path d="M0 0 C5.81651988 1.53066313 12.67737387 4.67737387 17 9 C17.11863792 10.48078359 17.16898802 11.96710124 17.19186401 13.45245361 C17.20887863 14.41423019 17.22589325 15.37600677 17.24342346 16.3669281 C17.25703415 17.43081253 17.27064484 18.49469696 17.28466797 19.59082031 C17.30259903 20.70459549 17.32053009 21.81837067 17.33900452 22.96589661 C17.39635502 26.66991201 17.4453154 30.37396277 17.4921875 34.078125 C17.50854374 35.33971184 17.52489998 36.60129868 17.54175186 37.90111542 C17.6093148 43.20253112 17.67475631 48.50395186 17.73234367 53.80548477 C17.81502028 61.40599585 17.91473578 69.00584032 18.03843391 76.60579801 C18.13431324 82.59157302 18.20255446 88.57735213 18.26114273 94.56362152 C18.29012363 97.11065533 18.32772055 99.65760598 18.37401962 102.20438385 C18.43686867 105.76698866 18.4681196 109.3285506 18.49169922 112.89160156 C18.53033333 114.47528282 18.53033333 114.47528282 18.56974792 116.09095764 C18.57045262 123.25817786 18.57045262 123.25817786 15.60916138 127.10906982 C13.33533421 128.75697418 11.23599891 130.14623779 8.6875 131.3125 C7.99011719 131.63863281 7.29273438 131.96476563 6.57421875 132.30078125 C5.79498047 132.64689453 5.79498047 132.64689453 5 133 C6.47559669 128.57320993 8.90057368 128.08567304 13 126 C13.66 126 14.32 126 15 126 C15.02345146 114.74904197 15.04107859 103.49809001 15.05181217 92.24711227 C15.05697077 87.01955027 15.06393598 81.79200532 15.07543945 76.56445312 C15.1244995 53.68865619 15.13496452 30.85339083 14 8 C13.3827002 7.85288574 12.76540039 7.70577148 12.12939453 7.55419922 C9.87617316 6.96777265 7.9637318 6.14951103 5.875 5.125 C5.19179687 4.79757813 4.50859375 4.47015625 3.8046875 4.1328125 C2 3 2 3 0 0 Z " fill="#7A41B4" transform="translate(241,92)"/>
<path d="M0 0 C0.33 0 0.66 0 1 0 C1 25.08 1 50.16 1 76 C2.98 76.66 4.96 77.32 7 78 C9.24199538 79.25413281 11.45028095 80.57002444 13.625 81.9375 C14.73101562 82.62714844 15.83703125 83.31679687 16.9765625 84.02734375 C19.39828758 85.60740985 21.71948473 87.22564788 24 89 C22.35 89 20.7 89 19 89 C19 88.34 19 87.68 19 87 C18.13375 86.814375 18.13375 86.814375 17.25 86.625 C14.97664233 85.99351176 13.0746471 85.11141809 11 84 C11 83.34 11 82.68 11 82 C10.319375 81.9175 9.63875 81.835 8.9375 81.75 C5.13596896 80.77939633 2.38045195 78.99084332 -1 77 C-1.20900322 25.02893891 -1.20900322 25.02893891 0 0 Z " fill="#371A56" transform="translate(91,121)"/>
<path d="M0 0 C11.34604574 5.42315074 22.17573825 11.60858077 33 18 C31.125 18.625 31.125 18.625 29 19 C28.34 18.34 27.68 17.68 27 17 C26.319375 16.835 25.63875 16.67 24.9375 16.5 C24.298125 16.335 23.65875 16.17 23 16 C22.67 15.34 22.34 14.68 22 14 C19.78674876 12.78344468 17.58611167 11.65411172 15.3125 10.5625 C14.69955078 10.26279297 14.08660156 9.96308594 13.45507812 9.65429688 C12.23497363 9.0578301 11.01379199 8.46356128 9.79150391 7.87158203 C7.18346215 6.60274733 4.59169505 5.30181917 2 4 C2 3.34 2 2.68 2 2 C1.34 2 0.68 2 0 2 C0 1.34 0 0.68 0 0 Z " fill="#653698" transform="translate(167,50)"/>
<path d="M0 0 C0.33 0 0.66 0 1 0 C1.33 11.55 1.66 23.1 2 35 C3.98 35.66 5.96 36.32 8 37 C10.48513174 38.51308759 12.67697139 40.23449825 15 42 C11.8937488 42 10.75502395 41.56735392 8.0625 40.1875 C7.39347656 39.85105469 6.72445312 39.51460937 6.03515625 39.16796875 C5.36355469 38.78253906 4.69195312 38.39710938 4 38 C3.30608154 37.64486328 2.61216309 37.28972656 1.8972168 36.92382812 C-0.51508559 34.47768956 -0.45462997 32.67169876 -0.45318604 29.32380676 C-0.43254089 28.57370834 -0.41189575 27.82360992 -0.390625 27.05078125 C-0.38496521 26.27816452 -0.37930542 25.50554779 -0.37347412 24.70951843 C-0.35109327 22.24321371 -0.30089703 19.77836508 -0.25 17.3125 C-0.22993706 15.63999495 -0.21168592 13.96746711 -0.1953125 12.29492188 C-0.15122331 8.19605404 -0.08218675 4.09827383 0 0 Z " fill="#9457D3" transform="translate(54,184)"/>
<path d="M0 0 C0 0.99 0 1.98 0 3 C-3.465 4.485 -3.465 4.485 -7 6 C-7.33 17.55 -7.66 29.1 -8 41 C-8.33 41 -8.66 41 -9 41 C-9 28.79 -9 16.58 -9 4 C-2 0 -2 0 0 0 Z " fill="#9559D3" transform="translate(63,96)"/>
<path d="M0 0 C0.66 0.33 1.32 0.66 2 1 C0.1875 3.5 0.1875 3.5 -2 6 C-2.99 6 -3.98 6 -5 6 C-5 6.66 -5 7.32 -5 8 C-6.62212059 8.52973311 -8.24781584 9.04853107 -9.875 9.5625 C-10.77992187 9.85253906 -11.68484375 10.14257812 -12.6171875 10.44140625 C-15 11 -15 11 -17 10 C-14.21605957 8.29949343 -11.42172475 6.61688375 -8.625 4.9375 C-7.8309375 4.45216797 -7.036875 3.96683594 -6.21875 3.46679688 C-5.45820312 3.01240234 -4.69765625 2.55800781 -3.9140625 2.08984375 C-2.8614624 1.45357056 -2.8614624 1.45357056 -1.78759766 0.80444336 C-0.90273682 0.4062439 -0.90273682 0.4062439 0 0 Z " fill="#6C3AA2" transform="translate(80,85)"/>
<path d="M0 0 C8.8794871 4.34059295 17.64304739 8.69654931 26 14 C24 15 24 15 22.1171875 14.3984375 C17.49039942 12.28655862 13.2535708 9.94737311 8.99609375 7.171875 C5.81295295 5.3031035 2.48933584 4.1838818 -1 3 C-0.67 2.01 -0.34 1.02 0 0 Z " fill="#5B2F8D" transform="translate(208,73)"/>
<path d="M0 0 C-0.309375 0.5775 -0.61875 1.155 -0.9375 1.75 C-1.92583364 3.84294184 -2.5168613 5.74535275 -3 8 C-3.804375 7.814375 -4.60875 7.62875 -5.4375 7.4375 C-6.283125 7.293125 -7.12875 7.14875 -8 7 C-8.33 7.33 -8.66 7.66 -9 8 C-10.66617115 8.04063832 -12.33388095 8.042721 -14 8 C-14 7.01 -14 6.02 -14 5 C-13.319375 4.9175 -12.63875 4.835 -11.9375 4.75 C-9.28231457 4.07208032 -7.63219434 3.31087552 -5.3125 1.9375 C-2 0 -2 0 0 0 Z " fill="#864DC1" transform="translate(168,246)"/>
<path d="M0 0 C-1.46748366 3.86882056 -3.25807955 5.29173197 -7 7 C-9.67907714 7.51692769 -12.27314602 7.76891068 -15 8 C-12.23612808 5.84821844 -9.43466931 4.01629579 -6.375 2.3125 C-5.59898438 1.87550781 -4.82296875 1.43851562 -4.0234375 0.98828125 C-2 0 -2 0 0 0 Z " fill="#6D3AA4" transform="translate(97,77)"/>
<path d="M0 0 C0 0.66 0 1.32 0 2 C-0.61488281 2.32613281 -1.22976562 2.65226562 -1.86328125 2.98828125 C-2.67152344 3.42527344 -3.47976562 3.86226563 -4.3125 4.3125 C-5.11300781 4.74175781 -5.91351563 5.17101562 -6.73828125 5.61328125 C-9.01999938 6.88162791 -9.01999938 6.88162791 -10.59375 8.65625 C-12 10 -12 10 -15.1875 10.1875 C-16.115625 10.125625 -17.04375 10.06375 -18 10 C-13.67630171 6.12358085 -6.04191557 0 0 0 Z " fill="#874EC2" transform="translate(125,103)"/>
<path d="M0 0 C-1.25713718 3.77141154 -2.34682217 4.05175299 -5.8125 5.8125 C-7.12154297 6.50279297 -7.12154297 6.50279297 -8.45703125 7.20703125 C-11 8 -11 8 -13.19921875 7.19921875 C-13.79347656 6.80347656 -14.38773438 6.40773437 -15 6 C-15.66 5.67 -16.32 5.34 -17 5 C-16.67 4.34 -16.34 3.68 -16 3 C-15.175 3.433125 -14.35 3.86625 -13.5 4.3125 C-9.48494237 5.10117203 -9.01693389 4.75327627 -5.75 2.625 C-5.08484375 2.14289063 -4.4196875 1.66078125 -3.734375 1.1640625 C-2 0 -2 0 0 0 Z " fill="#8A50C6" transform="translate(167,199)"/>
<path d="M0 0 C0.99 0.33 1.98 0.66 3 1 C0.04550087 2.6735337 -2.9142018 4.33763985 -5.875 6 C-6.71675781 6.47695312 -7.55851563 6.95390625 -8.42578125 7.4453125 C-9.63427734 8.12207031 -9.63427734 8.12207031 -10.8671875 8.8125 C-11.61081543 9.23144531 -12.35444336 9.65039062 -13.12060547 10.08203125 C-15 11 -15 11 -17 11 C-17 10.01 -17 9.02 -17 8 C-16.03900391 7.63648438 -16.03900391 7.63648438 -15.05859375 7.265625 C-10.87630499 5.64506602 -6.88889303 4.04409828 -3.0625 1.6875 C-2.051875 1.130625 -1.04125 0.57375 0 0 Z " fill="#562A87" transform="translate(239,227)"/>
<path d="M0 0 C-1.20523048 3.61569144 -2.07185564 3.94669545 -5.3125 5.75 C-6.48232422 6.42289063 -6.48232422 6.42289063 -7.67578125 7.109375 C-10.30300917 8.11611108 -11.40927388 7.97226335 -14 7 C-12.04480616 5.82807953 -10.0857461 4.6626071 -8.125 3.5 C-7.03445312 2.8503125 -5.94390625 2.200625 -4.8203125 1.53125 C-2 0 -2 0 0 0 Z " fill="#341357" transform="translate(187,215)"/>
<path d="M0 0 C11.70615034 6.15034169 11.70615034 6.15034169 16 10 C15.01 10.33 14.02 10.66 13 11 C12.5875 10.525625 12.175 10.05125 11.75 9.5625 C10.12303396 7.86599529 10.12303396 7.86599529 8 7.5 C5.53379275 6.88344819 4.69882841 5.84655262 3 4 C2.01 3.34 1.02 2.68 0 2 C0 1.34 0 0.68 0 0 Z " fill="#8D52CA" transform="translate(126,235)"/>
<path d="M0 0 C-1.15173355 2.46800047 -2.04783565 4.04783565 -4 6 C-6.65537372 6.56520003 -9.29144713 6.73788198 -12 7 C-3.55172414 0 -3.55172414 0 0 0 Z " fill="#864DC1" transform="translate(186,188)"/>
<path d="M0 0 C5.62293412 1.28858907 10.47500623 3.33299206 15 7 C15 7.66 15 8.32 15 9 C11.32305352 7.62859834 8.04681411 5.96304199 4.6875 3.9375 C3.80449219 3.41027344 2.92148438 2.88304687 2.01171875 2.33984375 C1.34785156 1.89769531 0.68398437 1.45554687 0 1 C0 0.67 0 0.34 0 0 Z " fill="#50267E" transform="translate(138,266)"/>
<path d="M0 0 C1.94113934 0.92994117 3.8777951 1.8692453 5.8125 2.8125 C6.89144531 3.33457031 7.97039062 3.85664062 9.08203125 4.39453125 C11.56579702 5.76110117 13.1799378 6.87340101 15 9 C11.44765442 8.39102647 8.2668126 7.54266151 5 6 C4.67 5.34 4.34 4.68 4 4 C1.98330173 2.86649466 1.98330173 2.86649466 0 2 C0 1.34 0 0.68 0 0 Z " fill="#5C308D" transform="translate(185,60)"/>
<path d="M0 0 C7.38461538 0.36923077 7.38461538 0.36923077 10.5 3.5625 C10.995 4.366875 11.49 5.17125 12 6 C8.55639368 6 7.25204608 5.20408468 4.3125 3.5 C3.50425781 3.0359375 2.69601563 2.571875 1.86328125 2.09375 C1.24839844 1.7328125 0.63351563 1.371875 0 1 C0 0.67 0 0.34 0 0 Z " fill="#66339B" transform="translate(119,255)"/>
<path d="M0 0 C3.12998066 1.17374275 6.16985863 2.50288361 9.1875 3.9375 C9.86167969 4.25589844 10.53585938 4.57429687 11.23046875 4.90234375 C13 6 13 6 15 9 C9.26800429 7.53025751 4.66416601 4.55513098 0 1 C0 0.67 0 0.34 0 0 Z " fill="#451F71" transform="translate(54,218)"/>
<path d="M0 0 C0.66 0.33 1.32 0.66 2 1 C-2.27548441 5.7641112 -2.27548441 5.7641112 -5.6875 6.875 C-8 7 -8 7 -10 6 C-8.3811004 4.96951963 -6.75467511 3.95085322 -5.125 2.9375 C-4.22007812 2.36902344 -3.31515625 1.80054687 -2.3828125 1.21484375 C-1.20332031 0.61349609 -1.20332031 0.61349609 0 0 Z " fill="#864CC1" transform="translate(144,91)"/>
<path d="M0 0 C-0.33 1.65 -0.66 3.3 -1 5 C-3.64 5 -6.28 5 -9 5 C-2.87096774 0 -2.87096774 0 0 0 Z " fill="#8A4DC9" transform="translate(182,238)"/>
<path d="M0 0 C0 0.66 0 1.32 0 2 C-0.99 2 -1.98 2 -3 2 C-3 2.66 -3 3.32 -3 4 C-5.25 5.6875 -5.25 5.6875 -8 7 C-10.171875 6.58203125 -10.171875 6.58203125 -12 6 C-10.37829621 4.99466333 -8.75252763 3.99588093 -7.125 3 C-5.76761719 2.1646875 -5.76761719 2.1646875 -4.3828125 1.3125 C-2 0 -2 0 0 0 Z " fill="#844DBC" transform="translate(194,231)"/>
<path d="M0 0 C0 0.99 0 1.98 0 3 C-3.4352048 5.29013653 -4.985331 5.17842973 -9 5 C-6.45523312 2.20075644 -3.92372883 0 0 0 Z " fill="#6C39A3" transform="translate(63,96)"/>
<path d="M0 0 C-1.95245185 1.19714555 -3.91214997 2.38248074 -5.875 3.5625 C-6.96554688 4.22378906 -8.05609375 4.88507813 -9.1796875 5.56640625 C-10.57574219 6.27603516 -10.57574219 6.27603516 -12 7 C-12.66 6.67 -13.32 6.34 -14 6 C-5.00826446 -1.66942149 -5.00826446 -1.66942149 0 0 Z " fill="#4E247D" transform="translate(182,262)"/>
<path d="M0 0 C-0.309375 0.5775 -0.61875 1.155 -0.9375 1.75 C-1.92583364 3.84294184 -2.5168613 5.74535275 -3 8 C-4.32 7.34 -5.64 6.68 -7 6 C-6.34 5.67 -5.68 5.34 -5 5 C-4.835 4.34 -4.67 3.68 -4.5 3 C-4.335 2.34 -4.17 1.68 -4 1 C-2 0 -2 0 0 0 Z " fill="#914FD4" transform="translate(168,246)"/>
<path d="M0 0 C4.455 1.98 4.455 1.98 9 4 C5 6 5 6 2 6 C2 4.68 2 3.36 2 2 C1.34 2 0.68 2 0 2 C0 1.34 0 0.68 0 0 Z " fill="#8D4FCD" transform="translate(144,246)"/>
<path d="M0 0 C0.66 0.33 1.32 0.66 2 1 C0.9375 2.9375 0.9375 2.9375 -1 5 C-4.6875 5.75 -4.6875 5.75 -8 6 C-5.38485683 3.87961365 -2.80362384 1.86908256 0 0 Z " fill="#351557" transform="translate(130,127)"/>
<path d="M0 0 C-1.875 3.875 -1.875 3.875 -3 5 C-4.99958364 5.04080783 -7.00045254 5.04254356 -9 5 C-2.87096774 0 -2.87096774 0 0 0 Z " fill="#713EA8" transform="translate(150,47)"/>
<path d="M0 0 C0 0.66 0 1.32 0 2 C-0.99 2 -1.98 2 -3 2 C-3 2.66 -3 3.32 -3 4 C-6 6 -6 6 -8.1875 5.625 C-8.785625 5.41875 -9.38375 5.2125 -10 5 C-8.71186658 4.16121545 -7.41936744 3.32913217 -6.125 2.5 C-5.40570313 2.0359375 -4.68640625 1.571875 -3.9453125 1.09375 C-2 0 -2 0 0 0 Z " fill="#3D1964" transform="translate(204,205)"/>
<path d="M0 0 C0 0.66 0 1.32 0 2 C-2.31 3.32 -4.62 4.64 -7 6 C-7.66 5.34 -8.32 4.68 -9 4 C-2.25 0 -2.25 0 0 0 Z " fill="#864EC1" transform="translate(134,98)"/>
<path d="M0 0 C0 0.66 0 1.32 0 2 C-4.15267176 5.11450382 -4.15267176 5.11450382 -7.3125 4.6875 C-7.869375 4.460625 -8.42625 4.23375 -9 4 C-2.25 0 -2.25 0 0 0 Z " fill="#814CB8" transform="translate(229,211)"/>
<path d="M0 0 C0.66 0.33 1.32 0.66 2 1 C0.71389765 3.5722047 -0.33393981 4.00974907 -3 5 C-5.25 4.625 -5.25 4.625 -7 4 C-1.7265625 0.77734375 -1.7265625 0.77734375 0 0 Z " fill="#5D318E" transform="translate(125,60)"/>
<path d="M0 0 C0.66 0.33 1.32 0.66 2 1 C0.35 2.65 -1.3 4.3 -3 6 C-3.99 5.34 -4.98 4.68 -6 4 C-4.02 2.68 -2.04 1.36 0 0 Z " fill="#874FC0" transform="translate(235,206)"/>
<path d="M0 0 C3.96 1.98 3.96 1.98 8 4 C7.67 4.66 7.34 5.32 7 6 C4.625 5.25 4.625 5.25 2 4 C1.34 2.68 0.68 1.36 0 0 Z " fill="#9151D2" transform="translate(167,92)"/>
<path d="M0 0 C0.763125 0.061875 1.52625 0.12375 2.3125 0.1875 C2.6425 0.8475 2.9725 1.5075 3.3125 2.1875 C-1.1425 2.6825 -1.1425 2.6825 -5.6875 3.1875 C-2.6875 0.1875 -2.6875 0.1875 0 0 Z " fill="#5B2E8D" transform="translate(155.6875,43.8125)"/>
<path d="" fill="#10022E" transform="translate(0,0)"/>
</svg>
