<?xml version="1.0" encoding="utf-8" ?><svg xmlns="http://www.w3.org/2000/svg" xmlns:xlink="http://www.w3.org/1999/xlink" width="2737" height="560" viewBox="0 0 2737 560"><path fill="#A051EE" d="M238.284 26.9858C240.875 26.8535 243.631 26.8435 245.983 28.0945C270.188 40.9701 293.873 54.8007 317.717 68.3287C366.195 95.8991 414.925 123.024 463.9 149.701C464.641 204.786 463.963 261.428 463.959 316.622L463.958 368.555C463.968 378.007 464.487 392.131 463.223 401.157C460.078 406.732 270.604 513.789 243.837 528.991C240.443 528.682 237.849 527.911 234.897 526.214C190.986 500.979 147.076 475.797 103.002 450.846L50.1508 420.869C41.5118 415.954 27.0375 408.242 19.5901 402.509C17.5874 393.58 19.2643 353.89 19.1702 341.772L18.1335 200.054C18.1274 192.029 17.5837 156.319 19.1347 151.124C26.5909 145.546 36.8624 140.51 45.2198 135.782C63.7431 125.277 82.3438 114.908 101.021 104.677C145.359 79.8169 193.878 50.5422 238.284 26.9858Z"/><path fill="#1D0A36" d="M240.237 74.475C248.318 75.963 399.823 162.049 418.991 173.746C418.518 238.976 417.294 312.677 418.991 377.535C378.315 401.965 335.839 424.975 294.942 449.164C278.139 459.102 259.757 468.857 243.375 479.245C239.661 477.766 234.009 474.634 230.545 472.6C175.144 440.065 119.168 408.555 63.2592 376.916L63.0525 243.98C63.0133 221.258 62.5166 196.695 63.3657 174.216C77.3078 164.965 105.383 150.198 120.606 141.638L240.237 74.475Z"/><path fill="#A051EE" d="M241.401 115.226C246.546 117.079 277.709 135.161 284.84 139.161L380.771 192.952C381.575 208.578 381.121 229.499 380.959 245.456C363.281 245.591 345.602 245.429 327.93 244.968L327.876 225.022L242.374 175.83C215.24 191.794 184.275 208.316 157.959 224.896C157.185 258.03 157.919 293.808 157.981 327.142C184.981 343.664 214.75 359.741 242.365 376.083C266.693 361.444 292.73 346.92 317.403 332.643L327.742 326.469C328.147 319.769 328.043 312.323 328.086 305.544C345.746 305.154 363.083 305.751 381.005 305.119L381.011 356.259L242.669 436.317C205.739 417.129 169.556 394.423 132.961 374.422C122.811 368.874 111.399 362.383 101.869 356.04L102.105 193.681C147.861 168.871 195.806 140.93 241.401 115.226Z"/><path fill="#A051EE" d="M1736.55 86.4492C1737.43 86.2997 1738.33 86.1915 1739.22 86.1248C1795.18 82.1228 1833.9 113.864 1834.99 170.452C1835.6 202.582 1835.98 235.622 1835.25 267.767C1833.73 335.362 1853.24 444.696 1755.75 450.199C1733.77 451.988 1708.21 448.081 1690.63 433.576C1650.18 400.206 1659.31 342.387 1658.21 295.954C1658.63 286.318 1657.73 276.365 1658.24 266.767C1662.13 193.558 1635.28 96.6292 1736.55 86.4492ZM1746.38 384.665C1761.22 382.488 1762.42 372.428 1762.6 358.767C1763.4 298.388 1763.06 237.885 1762.78 177.495C1762.72 164.404 1761.22 152.275 1745.54 152.158C1731.17 155.252 1729.95 165.244 1729.56 178.523C1729.38 209.152 1728.69 240.193 1729.2 270.809C1729.76 304.514 1727.28 339.23 1731.6 372.549C1732.64 380.56 1739.21 383.658 1746.38 384.665Z"/><path fill="#1D0A36" d="M852.123 87.4397C913.163 81.9686 954.638 105.671 957.117 171.271C957.532 182.269 957.479 193.165 957.491 204.181L957.515 267.488L957.488 327.267C957.458 385.522 953.852 437.713 884.405 449.624C769.517 459.987 780.205 358.286 781.169 279.373C781.241 273.476 780.806 266.772 781.162 260.983C785.481 190.67 758.585 105.388 852.123 87.4397ZM871.963 384.958C876.283 383.514 879.796 381.663 881.945 377.445C884.424 372.581 884.843 366.922 885.186 361.557C886.632 338.953 887.383 172.689 883.267 160.749C882.21 157.68 879.843 154.883 876.922 153.46C873.708 151.894 870.157 151.959 866.665 151.977C861.67 153.554 857.839 155.626 855.356 160.449C853.448 164.153 852.431 168.623 852.114 172.76C850.435 194.634 850.208 361.46 854.086 373.913C855.306 377.831 858.002 381.244 861.677 383.116C864.622 384.616 868.685 385.204 871.963 384.958Z"/><path fill="#A051EE" d="M2314.64 89.1757C2328.93 90.7447 2351.6 88.8068 2366.68 89.4057C2373.68 89.6839 2379.83 88.4613 2387.09 90.0362C2394.23 100.226 2414.14 232.527 2421.27 256.249C2420.2 202.819 2423.22 141.769 2420.98 89.3726C2435.9 90.624 2470.88 89.535 2487.19 89.4662L2489.43 89.7989C2490.91 92.5622 2490.74 98.5121 2490.73 101.788C2490.31 187.013 2490.59 272.314 2490.58 357.533C2490.58 363.895 2490.9 444.547 2490.23 446.709C2490.1 447.115 2489.95 447.513 2489.78 447.903C2473 446.645 2437.78 447.195 2420.38 447.71C2411.59 390.236 2394.95 327.866 2385.44 269.649C2384.5 288.559 2385.11 312.835 2385.1 332.134L2385.15 447.646C2363.56 447.026 2336.33 447.019 2314.78 447.697C2314.84 329.744 2316.46 206.836 2314.64 89.1757Z"/><path fill="#1D0A36" d="M986.334 89.8212C1017.78 91.6671 1100.03 85.0514 1123.88 94.4333C1136.94 99.5689 1146.37 109.828 1151.84 122.599C1163.1 148.904 1165.18 207.15 1154.35 233.873C1150.11 244.322 1142.57 253.032 1132.2 257.547C1129.96 258.522 1128.34 258.931 1127.41 261.28C1164.06 271.575 1156.44 321.156 1156.31 351.519L1155.7 447.109L1085.72 447.167C1086.26 427.641 1085.84 406.178 1085.86 386.5L1085.97 332.173C1085.99 322.07 1086.38 312.133 1085.54 302.048C1084.04 283.952 1073.29 284.933 1058.76 283.496C1058.21 337.644 1058.53 392.923 1058.75 447.121L986.427 447.058C987.072 429.651 986.541 408.515 986.543 390.888L986.557 283.535C986.57 221.122 988.125 151.729 986.334 89.8212ZM1058.89 222.179C1067.07 222.307 1079.44 224.033 1085.6 217.773C1091.53 206.774 1096.91 166.695 1083.26 157.3C1079.35 154.61 1064.99 155.811 1059.38 155.426C1057.71 170.948 1059.1 205.073 1058.89 222.179Z"/><path fill="#A051EE" d="M1558.76 89.2616C1570.84 90.1019 1621.75 88.3274 1628.72 90.082C1630.79 97.4707 1630.03 171.503 1630.04 185.876L1630.12 447.756C1619.24 447.432 1607.69 447.591 1596.75 447.558C1584.14 447.487 1571.3 447.266 1558.72 447.78C1559.41 393.687 1558.22 339.177 1558.99 284.984C1547.96 285.213 1536 285.003 1524.9 284.996L1525.05 447.74C1503.89 446.982 1474.99 447.185 1453.77 447.781L1453.8 207.938C1453.79 169.508 1452.88 127.513 1453.99 89.3604C1476.39 90.1419 1502.45 89.524 1525.08 89.3992C1524.01 130.366 1524.95 176.219 1524.89 217.45C1536.09 217.108 1547.71 217.355 1558.94 217.444C1558.14 175.38 1558.77 131.467 1558.76 89.2616Z"/><path fill="#A051EE" d="M2600.14 86.4218C2601.07 86.3174 2602.01 86.2334 2602.95 86.1701C2623.86 84.7118 2650.66 89.6474 2666.67 103.972C2696.49 130.663 2695.07 175.04 2697.3 211.395C2673.74 211.249 2650.18 211.224 2626.62 211.322C2626.81 197.389 2627.35 184.457 2626.19 169.962C2625.81 151.611 2603.55 146.108 2594.28 160.229C2588.54 168.963 2590.33 199.435 2590.33 209.987L2590.3 270.157L2590.31 326.93C2590.32 340.817 2589.78 353.951 2591.88 367.75C2594.45 384.545 2603.2 385.696 2617.95 383.182C2632.99 366.209 2626.04 324.172 2627.62 300.897L2608.28 301.173C2608.6 280.1 2608.55 259.022 2608.14 237.951C2621 239.844 2669.66 238.786 2684.81 238.749C2686.04 238.303 2694.26 238.738 2696.14 238.799C2694.53 305.708 2695.93 380.46 2696.07 447.761C2686.37 447.468 2676.66 447.419 2666.96 447.614C2663.17 437.463 2658.84 427.683 2655.06 417.273C2642.17 438.046 2624.9 450.045 2599.69 450.648C2498.9 453.058 2522.41 329.669 2519.18 264.511C2518.98 260.526 2519.31 256.25 2519.16 252.238C2520.15 181.653 2505 93.3788 2600.14 86.4218Z"/><path fill="#1D0A36" d="M672.438 86.4985C695.058 85.8008 721.021 93.8483 737.243 110.139C759.588 132.579 759.397 160.128 759.424 189.591L759.39 232.037C735.923 231.723 711.658 232.014 688.134 232.035C688.166 231.487 688.192 230.938 688.213 230.389C688.423 224.738 688.52 218.435 688.381 212.795C687.25 204.321 690.549 172.911 687.289 166.227C672.389 135.682 654.514 155.065 654.852 181.422C655.649 243.635 653.534 304.303 655.416 366.339C655.791 371.136 658.154 379.696 662.577 382.185C698.338 402.308 688.56 311.034 688.063 293.286L727.5 293.27L760.132 293.272C759.978 309.287 760.076 326.036 760.191 342.068C760.984 370.008 759.93 404.504 739.337 426.132C709.522 457.447 642.222 459.061 610.739 429.163C592.284 412.251 584.144 385.856 583.978 361.167C583.645 311.579 584.141 261.641 583.853 211.99C583.653 177.458 584.026 136.636 608.77 109.451C625.642 90.9133 648.792 87.3384 672.438 86.4985Z"/><path fill="#A051EE" d="M1903.68 268.84C1877.15 243.467 1858.07 220.716 1856.75 182.532C1854.64 121.488 1884.85 82.0221 1949.11 86.5027C2015.85 91.1574 2028.62 133.772 2030.06 192.384C2005.7 192.233 1981.35 192.227 1956.99 192.364C1957.11 181.176 1956.78 170.266 1955.35 159.158C1955.19 158.991 1955.03 158.826 1954.87 158.663C1951.57 155.363 1947.21 151.896 1941.83 152.289C1912.35 154.436 1927.96 189.37 1942.42 202.641C1954.29 213.538 1968.22 227.483 1980.88 239.671L1984.36 243.017L1996.79 255.702C1997.51 256.513 1999.1 258.184 1999.57 259.026C2025.75 286.707 2033.16 313.704 2031.82 351.547C2029.67 412.436 2009.48 453.35 1942.17 450.374C1852.84 446.424 1856.54 383.426 1856.66 313.046C1879.28 313.302 1905.93 313.791 1928.48 313.077C1925.8 326.661 1926.42 364.269 1930.38 377.233C1948.58 396.399 1961.91 380.509 1961.12 358.925C1960.24 335.055 1955.42 321.921 1939.26 304.239L1935.79 300.796L1923.22 288.223L1919.75 284.751L1907.1 272.289L1903.68 268.84Z"/><path fill="#1D0A36" d="M1184.92 89.9878C1231.31 89.8454 1281.77 88.9174 1327.84 90.0947C1326.94 110.452 1327.65 138.149 1327.81 158.639C1306.67 157.75 1279.18 158.451 1257.66 158.334C1257.69 181.025 1258.25 206.167 1257.31 228.666C1278.3 227.803 1303.76 228.617 1325.27 228.39C1324.66 250.394 1325.08 273.667 1325.13 295.763C1303.13 295.762 1279.52 296.172 1257.66 295.364L1257.57 348.433C1257.54 355.117 1257.09 370.703 1257.92 376.773L1259.96 377.948L1332.56 377.927C1332.42 400.962 1332.44 423.998 1332.62 447.034C1284.3 447.882 1233.41 447.108 1184.89 447.111C1187.38 363.97 1183.54 278.527 1185.14 195.167C1185.79 161.308 1186.07 123.753 1184.92 89.9878Z"/><path fill="#A051EE" d="M2044.25 89.2505C2057.75 90.1295 2075.93 89.6152 2089.83 89.5847L2166.74 89.5346C2177.27 89.5474 2190.72 88.8933 2200.8 89.6017L2200.84 158.379L2158.07 158.27C2158.65 185.499 2158.12 214.709 2158.13 242.065L2158.14 405.5L2158.21 447.813C2136.18 446.965 2108.37 447.341 2086.18 447.695C2087.61 417.183 2086.48 377.404 2086.48 346.37L2086.34 158.232C2072.18 158.095 2058.03 158.201 2043.87 158.551C2044.92 136.051 2043.47 111.988 2044.25 89.2505Z"/><path fill="#A051EE" d="M2217.14 89.2582C2233.86 90.5622 2268.23 89.3507 2286.3 89.4198L2286.45 446.107C2281.63 449.383 2227.8 447.111 2217.01 447.69C2218 328.534 2215.68 208.272 2217.14 89.2582Z"/></svg>