<?xml version="1.0" encoding="utf-8" ?>
<svg xmlns="http://www.w3.org/2000/svg" xmlns:xlink="http://www.w3.org/1999/xlink" viewBox="0 0 1600 400" width="100%" height="100%" preserveAspectRatio="xMidYMid meet" style="width: 100%; height: auto; display: block;">
  <path fill="#A051EE" transform="matrix(0.389865 -0.00295294 0.00371364 0.462894 0.00012207 12.0952)" d="M356.599 40.3823C360.476 40.1843 364.601 40.1694 368.121 42.0414C404.344 61.3088 439.789 82.0053 475.473 102.249C548.021 143.506 620.947 184.097 694.24 224.017C695.349 306.448 694.334 391.208 694.328 473.802L694.327 551.516C694.342 565.66 695.118 586.796 693.227 600.303C688.52 608.645 404.967 768.849 364.909 791.597C359.83 791.135 355.948 789.981 351.53 787.442C285.816 749.679 220.104 711.996 154.145 674.659L75.0521 629.8C62.1236 622.445 40.4624 610.905 29.3172 602.326C26.3201 588.964 28.8296 529.571 28.6888 511.437L27.1373 299.367C27.1282 287.358 26.3145 233.92 28.6356 226.146C39.7941 217.799 55.1657 210.263 67.6727 203.188C95.3934 187.468 123.23 171.952 151.181 156.642C217.534 119.44 290.144 75.6328 356.599 40.3823Z"/>
  <path fill="#1D0A36" transform="matrix(0.389865 -0.00295294 0.00371364 0.462894 0.00012207 12.0952)" d="M359.522 111.447C371.615 113.673 598.347 242.495 627.032 259.998C626.324 357.611 624.493 467.899 627.032 564.954C566.159 601.512 502.593 635.945 441.389 672.142C416.243 687.013 388.734 701.611 364.218 717.156C358.66 714.943 350.201 710.256 345.017 707.212C262.108 658.526 178.338 611.373 94.6692 564.028L94.3599 365.099C94.3012 331.097 93.5579 294.34 94.8286 260.702C115.693 246.858 157.709 224.761 180.49 211.951L359.522 111.447Z"/>
  <path fill="#A051EE" transform="matrix(0.389865 -0.00295294 0.00371364 0.462894 0.00012207 12.0952)" d="M361.264 172.427C368.963 175.2 415.6 202.259 426.271 208.244L569.835 288.739C571.038 312.122 570.359 343.429 570.116 367.307C543.661 367.509 517.203 367.267 490.757 366.577L490.676 336.729L362.72 263.117C322.113 287.006 275.773 311.73 236.39 336.541C235.232 386.123 236.33 439.663 236.423 489.545C276.829 514.269 321.38 538.327 362.706 562.781C399.114 540.875 438.079 519.141 475.003 497.777L490.475 488.538C491.082 478.512 490.926 467.369 490.99 457.225C517.419 456.641 543.364 457.535 570.185 456.589L570.194 533.116L363.161 652.917C307.894 624.204 253.745 590.226 198.98 560.296C183.79 551.994 166.712 542.28 152.45 532.788L152.803 289.83C221.278 252.703 293.029 210.892 361.264 172.427Z"/>
  <path fill="#A051EE" transform="matrix(0.389865 -0.00295294 0.00371364 0.462894 0.00012207 12.0952)" d="M2598.8 129.365C2600.11 129.141 2601.46 128.979 2602.79 128.88C2686.54 122.891 2744.48 170.389 2746.12 255.069C2747.03 303.15 2747.6 352.591 2746.51 400.694C2744.23 501.845 2773.43 665.456 2627.53 673.691C2594.64 676.368 2556.39 670.521 2530.08 648.815C2469.54 598.88 2483.21 512.358 2481.56 442.874C2482.19 428.454 2480.84 413.56 2481.6 399.198C2487.43 289.646 2447.24 144.599 2598.8 129.365ZM2613.51 575.624C2635.72 572.366 2637.51 557.312 2637.78 536.869C2638.98 446.516 2638.47 355.978 2638.05 265.609C2637.96 246.019 2635.72 227.869 2612.25 227.694C2590.75 232.324 2588.92 247.276 2588.34 267.147C2588.07 312.981 2587.03 359.432 2587.8 405.246C2588.64 455.683 2584.92 507.633 2591.39 557.493C2592.95 569.481 2602.78 574.117 2613.51 575.624Z"/>
  <path fill="#1D0A36" transform="matrix(0.389865 -0.00295294 0.00371364 0.462894 0.00012207 12.0952)" d="M1275.23 130.847C1366.58 122.66 1428.64 158.129 1432.35 256.295C1432.97 272.753 1432.9 289.058 1432.91 305.542L1432.95 400.277L1432.91 489.732C1432.86 576.906 1427.47 655.006 1323.54 672.83C1151.6 688.338 1167.6 536.149 1169.04 418.062C1169.15 409.237 1168.5 399.205 1169.03 390.542C1175.5 285.324 1135.24 157.706 1275.23 130.847ZM1304.92 576.062C1311.38 573.901 1316.64 571.131 1319.86 564.82C1323.57 557.541 1324.19 549.073 1324.71 541.044C1326.87 507.219 1327.99 258.417 1321.83 240.549C1320.25 235.957 1316.71 231.771 1312.34 229.642C1307.53 227.299 1302.22 227.396 1296.99 227.423C1289.51 229.783 1283.78 232.883 1280.07 240.1C1277.21 245.643 1275.69 252.332 1275.21 258.523C1272.7 291.256 1272.36 540.899 1278.16 559.534C1279.99 565.397 1284.03 570.504 1289.52 573.306C1293.93 575.55 1300.01 576.43 1304.92 576.062Z"/>
  <path fill="#A051EE" transform="matrix(0.389865 -0.00295294 0.00371364 0.462894 0.00012207 12.0952)" d="M3463.93 133.445C3485.31 135.793 3519.24 132.893 3541.81 133.789C3552.28 134.206 3561.48 132.376 3572.35 134.733C3583.03 149.981 3612.83 347.96 3623.5 383.458C3621.9 303.504 3626.42 212.147 3623.07 133.74C3645.4 135.612 3697.74 133.983 3722.15 133.88L3725.5 134.378C3727.72 138.513 3727.46 147.416 3727.45 152.318C3726.82 279.852 3727.24 407.498 3727.23 535.023C3727.23 544.543 3727.7 665.233 3726.7 668.468C3726.51 669.076 3726.28 669.671 3726.03 670.255C3700.92 668.372 3648.21 669.195 3622.17 669.966C3609.01 583.96 3584.11 490.628 3569.88 403.51C3568.47 431.808 3569.39 468.135 3569.37 497.015L3569.45 669.87C3537.14 668.943 3496.39 668.932 3464.14 669.947C3464.23 493.438 3466.65 309.515 3463.93 133.445Z"/>
  <path fill="#1D0A36" transform="matrix(0.389865 -0.00295294 0.00371364 0.462894 0.00012207 12.0952)" d="M1476.08 134.411C1523.14 137.173 1646.23 127.273 1681.92 141.313C1701.46 148.998 1715.58 164.35 1723.76 183.461C1740.61 222.824 1743.73 309.985 1727.52 349.974C1721.17 365.61 1709.89 378.644 1694.37 385.401C1691.02 386.86 1688.59 387.472 1687.2 390.987C1742.05 406.393 1730.65 480.587 1730.45 526.023L1729.54 669.067L1624.81 669.154C1625.62 639.934 1624.99 607.816 1625.02 578.37L1625.19 497.073C1625.22 481.955 1625.8 467.085 1624.54 451.993C1622.3 424.914 1606.21 426.382 1584.47 424.232C1583.64 505.26 1584.12 587.981 1584.45 669.085L1476.22 668.99C1477.18 642.942 1476.39 611.314 1476.39 584.936L1476.41 424.29C1476.43 330.893 1478.76 227.052 1476.08 134.411ZM1584.66 332.475C1596.9 332.667 1615.41 335.249 1624.63 325.882C1633.51 309.423 1641.56 249.447 1621.13 235.388C1615.28 231.363 1593.79 233.16 1585.39 232.584C1582.89 255.811 1584.97 306.877 1584.66 332.475Z"/>
  <path fill="#A051EE" transform="matrix(0.389865 -0.00295294 0.00371364 0.462894 0.00012207 12.0952)" d="M2332.73 133.574C2350.81 134.831 2427 132.176 2437.43 134.801C2440.52 145.858 2439.39 256.642 2439.4 278.15L2439.52 670.035C2423.24 669.55 2405.95 669.788 2389.58 669.739C2370.71 669.632 2351.5 669.302 2332.67 670.071C2333.7 589.125 2331.92 507.554 2333.07 426.458C2316.57 426.801 2298.67 426.487 2282.06 426.476L2282.28 670.011C2250.62 668.877 2207.37 669.18 2175.61 670.072L2175.65 311.164C2175.64 253.657 2174.28 190.814 2175.94 133.721C2209.46 134.891 2248.46 133.966 2282.33 133.78C2280.73 195.083 2282.13 263.699 2282.04 325.398C2298.8 324.887 2316.19 325.256 2333 325.389C2331.8 262.444 2332.74 196.731 2332.73 133.574Z"/>
  <path fill="#A051EE" transform="matrix(0.389865 -0.00295294 0.00371364 0.462894 0.00012207 12.0952)" d="M3891.19 129.324C3892.58 129.168 3893.98 129.042 3895.39 128.947C3926.68 126.765 3966.79 134.151 3990.75 155.587C4035.38 195.528 4033.25 261.935 4036.59 316.338C4001.33 316.119 3966.07 316.082 3930.81 316.228C3931.1 295.379 3931.91 276.027 3930.17 254.336C3929.6 226.875 3896.29 218.64 3882.42 239.771C3873.83 252.841 3876.5 298.44 3876.5 314.231L3876.46 404.271L3876.47 489.227C3876.49 510.008 3875.68 529.662 3878.82 550.312C3882.67 575.444 3895.76 577.167 3917.84 573.405C3940.35 548.006 3929.95 485.1 3932.31 450.271L3903.37 450.684C3903.85 419.15 3903.77 387.608 3903.16 356.077C3922.4 358.909 3995.22 357.326 4017.9 357.271C4019.74 356.603 4032.04 357.254 4034.85 357.346C4032.44 457.47 4034.54 569.331 4034.75 670.042C4020.23 669.604 4005.7 669.531 3991.18 669.822C3985.51 654.632 3979.03 639.997 3973.37 624.419C3954.08 655.505 3928.24 673.46 3890.51 674.363C3739.68 677.969 3774.86 493.326 3770.03 395.822C3769.73 389.859 3770.22 383.46 3770 377.456C3771.48 271.831 3748.81 139.735 3891.19 129.324Z"/>
  <path fill="#1D0A36" transform="matrix(0.389865 -0.00295294 0.00371364 0.462894 0.00012207 12.0952)" d="M1006.32 129.439C1040.17 128.395 1079.03 140.437 1103.31 164.815C1136.75 198.395 1136.46 239.62 1136.5 283.709L1136.45 347.227C1101.33 346.757 1065.02 347.192 1029.81 347.224C1029.86 346.404 1029.9 345.582 1029.93 344.761C1030.24 336.304 1030.39 326.872 1030.18 318.433C1028.49 305.752 1033.43 258.749 1028.55 248.747C1006.25 203.038 979.499 232.044 980.005 271.485C981.198 364.582 978.033 455.368 980.849 548.2C981.41 555.378 984.947 568.188 991.566 571.913C1045.08 602.025 1030.45 465.44 1029.71 438.882L1088.72 438.858L1137.56 438.861C1137.33 462.826 1137.48 487.89 1137.65 511.88C1138.83 553.691 1137.26 605.311 1106.44 637.676C1061.82 684.537 961.104 686.952 913.989 642.212C886.37 616.904 874.188 577.406 873.94 540.461C873.442 466.256 874.184 391.527 873.753 317.228C873.454 265.553 874.012 204.466 911.042 163.786C936.292 136.045 970.936 130.696 1006.32 129.439Z"/>
  <path fill="#A051EE" transform="matrix(0.389865 -0.00295294 0.00371364 0.462894 0.00012207 12.0952)" d="M2848.91 402.3C2809.21 364.331 2780.66 330.286 2778.68 273.146C2775.52 181.798 2820.73 122.74 2916.9 129.445C3016.78 136.411 3035.89 200.18 3038.04 287.889C3001.59 287.663 2965.15 287.654 2928.69 287.859C2928.87 271.117 2928.38 254.791 2926.24 238.169C2926 237.919 2925.76 237.672 2925.52 237.428C2920.58 232.49 2914.06 227.302 2906.01 227.89C2861.89 231.102 2885.25 283.379 2906.89 303.238C2924.65 319.544 2945.5 340.412 2964.44 358.651L2969.65 363.658L2988.25 382.64C2989.33 383.853 2991.71 386.354 2992.41 387.614C3031.59 429.037 3042.68 469.436 3040.68 526.065C3037.46 617.181 3007.25 678.406 2906.51 673.953C2772.83 668.042 2778.37 573.77 2778.55 468.451C2812.4 468.834 2852.28 469.566 2886.03 468.497C2882.02 488.825 2882.94 545.103 2888.87 564.502C2916.11 593.183 2936.06 569.405 2934.87 537.106C2933.56 501.386 2926.34 481.732 2902.16 455.272L2896.97 450.12L2878.15 431.305L2872.96 426.11L2854.03 407.461L2848.91 402.3Z"/>
  <path fill="#1D0A36" transform="matrix(0.389865 -0.00295294 0.00371364 0.462894 0.00012207 12.0952)" d="M1773.27 134.66C1842.69 134.447 1918.21 133.059 1987.15 134.82C1985.8 165.284 1986.87 206.73 1987.11 237.392C1955.47 236.062 1914.33 237.111 1882.12 236.936C1882.17 270.891 1883.01 308.514 1881.6 342.182C1913.01 340.891 1951.11 342.109 1983.31 341.769C1982.39 374.697 1983.02 409.523 1983.1 442.588C1950.17 442.587 1914.84 443.2 1882.12 441.991L1881.99 521.405C1881.95 531.407 1881.27 554.731 1882.51 563.814L1885.57 565.572L1994.21 565.541C1994.01 600.011 1994.04 634.483 1994.3 668.954C1921.99 670.223 1845.83 669.065 1773.22 669.07C1776.95 544.655 1771.2 416.796 1773.6 292.053C1774.57 241.386 1774.99 185.188 1773.27 134.66Z"/>
  <path fill="#A051EE" transform="matrix(0.389865 -0.00295294 0.00371364 0.462894 0.00012207 12.0952)" d="M3059.28 133.557C3079.48 134.872 3106.69 134.103 3127.49 134.057L3242.59 133.982C3258.35 134.001 3278.48 133.022 3293.56 134.083L3293.62 237.003L3229.61 236.84C3230.48 277.586 3229.69 321.297 3229.7 362.233L3229.72 606.802L3229.82 670.12C3196.86 668.851 3155.24 669.414 3122.03 669.944C3124.17 624.285 3122.48 564.758 3122.48 518.318L3122.27 236.783C3101.08 236.578 3079.9 236.737 3058.71 237.26C3060.28 203.591 3058.11 167.582 3059.28 133.557Z"/>
  <path fill="#A051EE" transform="matrix(0.389865 -0.00295294 0.00371364 0.462894 0.00012207 12.0952)" d="M3318.01 133.569C3343.04 135.52 3394.47 133.707 3421.51 133.81L3421.74 667.567C3414.53 672.47 3333.97 669.07 3317.82 669.936C3319.3 491.628 3315.83 311.664 3318.01 133.569Z"/>
</svg>
