<svg xmlns="http://www.w3.org/2000/svg" width="320" height="65.473" viewBox="0 0 320 65.473">
  <path fill="#a051ee" d="M27.859 3.155c.303-.016.625-.017.9.13 2.83 1.505 5.599 3.122 8.387 4.704a1067 1067 0 0 0 17.091 9.513c.087 6.44.007 13.063.007 19.516v6.072c.001 1.105.062 2.756-.086 3.812-.368.652-22.52 13.169-25.65 14.946a2.4 2.4 0 0 1-1.045-.325 2762 2762 0 0 0-15.421-8.812l-6.179-3.505c-1.01-.575-2.702-1.476-3.573-2.147-.234-1.044-.038-5.684-.049-7.101L2.12 23.389c-.001-.938-.064-5.113.117-5.721.872-.652 2.073-1.241 3.05-1.794a506 506 0 0 1 6.524-3.637c5.184-2.907 10.856-6.329 16.048-9.083"/>
  <path fill="#1d0a36" d="M28.088 8.707c.945.174 18.658 10.239 20.899 11.606-.055 7.626-.198 16.243 0 23.826-4.756 2.856-9.722 5.547-14.503 8.375-1.965 1.162-4.114 2.302-6.029 3.517-.434-.173-1.095-.539-1.5-.777-6.477-3.804-13.022-7.488-19.558-11.187l-.024-15.542c-.005-2.657-.063-5.528.037-8.157 1.63-1.082 4.912-2.808 6.692-3.809z"/>
  <path fill="#a051ee" d="M28.224 13.472c.602.217 4.245 2.331 5.079 2.798l11.216 6.289c.094 1.827.041 4.273.022 6.139a183 183 0 0 1-6.2-.057l-.006-2.332-9.997-5.751c-3.172 1.866-6.793 3.798-9.869 5.737-.09 3.874-.005 8.057.003 11.954 3.157 1.932 6.637 3.811 9.866 5.722 2.844-1.712 5.888-3.41 8.773-5.079l1.209-.722c.047-.783.035-1.654.04-2.446 2.065-.046 4.092.024 6.187-.05l.001 5.979-16.174 9.36c-4.318-2.243-8.548-4.898-12.827-7.237-1.187-.649-2.521-1.408-3.635-2.149l.028-18.982c5.35-2.901 10.955-6.167 16.286-9.173m174.805-3.365a3 3 0 0 1 .312-.038c6.543-.468 11.07 3.243 11.197 9.859.071 3.757.116 7.619.03 11.378-.178 7.903 2.103 20.686-9.295 21.329-2.57.209-5.558-.248-7.614-1.944-4.729-3.901-3.662-10.661-3.79-16.09.049-1.127-.056-2.29.004-3.412.455-8.559-2.684-19.892 9.156-21.082m1.149 34.866c1.735-.255 1.875-1.431 1.896-3.028.094-7.059.054-14.133.021-21.194-.007-1.531-.182-2.949-2.016-2.962-1.68.362-1.823 1.53-1.868 3.082-.021 3.581-.102 7.21-.042 10.79.065 3.941-.224 8 .281 11.895.122.937.89 1.299 1.728 1.417"/>
  <path fill="#1d0a36" d="M99.627 10.223c7.137-.64 11.986 2.132 12.276 9.801.049 1.286.042 2.56.044 3.848l.003 7.402-.003 6.989c-.004 6.811-.425 12.913-8.545 14.306-13.432 1.212-12.183-10.679-12.07-19.905.008-.689-.042-1.473-.001-2.15.505-8.221-2.64-18.192 8.296-20.29m2.32 34.785c.505-.169.916-.385 1.167-.878.29-.569.339-1.23.379-1.858.169-2.643.257-22.082-.224-23.478a1.52 1.52 0 0 0-.742-.852c-.376-.183-.791-.175-1.199-.173-.584.184-1.032.427-1.322.991-.223.433-.342.956-.379 1.439-.196 2.557-.223 22.062.231 23.518.143.458.458.857.888 1.076.344.175.819.244 1.203.215"/>
  <path fill="#a051ee" d="M270.619 10.426c1.671.183 4.321-.043 6.084.027.818.033 1.537-.11 2.386.074.835 1.191 3.163 16.66 3.996 19.433-.125-6.247.228-13.385-.034-19.511 1.744.146 5.834.019 7.741.011l.262.039c.173.323.153 1.019.152 1.402-.049 9.964-.016 19.937-.018 29.901 0 .744.037 10.173-.041 10.426q-.023.071-.053.14c-1.962-.147-6.08-.083-8.114-.023-1.028-6.72-2.973-14.012-4.085-20.818-.11 2.211-.039 5.049-.04 7.306l.006 13.505a149 149 0 0 0-8.227.006c.007-13.791.196-28.161-.016-41.917"/>
  <path fill="#1d0a36" d="M115.319 10.502c3.677.216 13.293-.558 16.081.539 1.527.6 2.629 1.8 3.269 3.293 1.316 3.075 1.56 9.885.293 13.01-.496 1.222-1.377 2.24-2.59 2.768-.262.114-.451.162-.56.436 4.285 1.204 3.394 7 3.379 10.55l-.071 11.176-8.182.007c.063-2.283.014-4.792.016-7.093l.013-6.352c.002-1.181.048-2.343-.05-3.522-.175-2.116-1.432-2.001-3.131-2.169-.064 6.331-.027 12.794-.001 19.13l-8.456-.007c.075-2.035.013-4.506.014-6.567l.002-12.551c.002-7.297.183-15.41-.026-22.648m8.483 15.475c.956.015 2.403.217 3.123-.515.693-1.286 1.322-5.972-.274-7.07-.457-.315-2.136-.174-2.792-.219-.195 1.815-.033 5.805-.057 7.805"/>
  <path fill="#a051ee" d="M182.245 10.436c1.412.098 7.365-.109 8.179.096.242.864.153 9.519.154 11.2l.009 30.618c-1.272-.038-2.622-.019-3.901-.023-1.474-.008-2.976-.034-4.446.026.081-6.324-.058-12.697.032-19.034-1.29.027-2.688.002-3.986.001l.018 19.027c-2.474-.089-5.853-.065-8.334.005l.004-28.042c-.001-4.493-.108-9.403.022-13.864 2.619.091 5.666.019 8.312.005-.125 4.79-.015 10.151-.022 14.971 1.309-.04 2.668-.011 3.981-.001-.094-4.918-.02-10.052-.021-14.987m121.753-.33q.164-.018.329-.029c2.445-.17 5.578.407 7.45 2.081 3.486 3.121 3.32 8.309 3.581 12.56q-4.132-.026-8.264-.009c.022-1.629.085-3.141-.05-4.836-.044-2.146-2.647-2.789-3.731-1.138-.671 1.021-.462 4.584-.462 5.818l-.004 7.035.001 6.638c.001 1.624-.062 3.159.184 4.773.3 1.964 1.323 2.098 3.048 1.804 1.758-1.984.946-6.899 1.131-9.62l-2.261.032q.056-3.696-.016-7.392c1.504.221 7.193.098 8.964.093.144-.052 1.105-.001 1.325.006-.188 7.823-.025 16.562-.008 24.431a68 68 0 0 0-3.403-.017c-.443-1.187-.949-2.33-1.391-3.547-1.507 2.429-3.526 3.832-6.474 3.902-11.784.282-9.035-14.144-9.413-21.762-.023-.466.015-.966-.002-1.435.116-8.253-1.656-18.573 9.468-19.387"/>
  <path fill="#1d0a36" d="M78.619 10.113c2.645-.082 5.68.859 7.577 2.764 2.612 2.624 2.59 5.845 2.593 9.289l-.004 4.963c-2.744-.037-5.581-.003-8.331 0q.006-.096.009-.192a34 34 0 0 0 .02-2.057c-.132-.991.253-4.663-.128-5.445-1.742-3.571-3.832-1.305-3.792 1.777.093 7.274-.154 14.367.066 21.62.044.561.32 1.562.837 1.853 4.181 2.353 3.038-8.319 2.98-10.394l4.611-.002h3.815c-.018 1.872-.007 3.831.007 5.705.093 3.267-.031 7.3-2.438 9.828-3.486 3.661-11.354 3.85-15.035.354-2.158-1.977-3.109-5.063-3.129-7.95-.039-5.798.019-11.636-.015-17.441-.023-4.037.02-8.81 2.913-11.988 1.973-2.167 4.679-2.585 7.444-2.683"/>
  <path fill="#a051ee" d="M222.571 31.432c-3.102-2.967-5.333-5.626-5.487-10.091-.247-7.137 3.285-11.751 10.798-11.227 7.803.544 9.296 5.527 9.464 12.379a716 716 0 0 0-8.543-.002c.014-1.308-.025-2.584-.192-3.882l-.056-.058c-.386-.386-.896-.791-1.525-.745-3.447.251-1.622 4.335.069 5.887 1.388 1.274 3.016 2.904 4.497 4.329l.407.391 1.453 1.483c.084.095.27.29.325.389 3.061 3.236 3.927 6.393 3.771 10.817-.251 7.119-2.612 11.902-10.482 11.554-10.444-.462-10.012-7.827-9.998-16.056 2.645.03 5.76.087 8.397.004-.313 1.588-.241 5.985.222 7.501 2.128 2.241 3.686.383 3.594-2.141-.103-2.791-.666-4.326-2.556-6.394l-.406-.403-1.47-1.47-.406-.406-1.479-1.457z"/>
  <path fill="#1d0a36" d="M138.536 10.521c5.424-.017 11.323-.125 16.71.013-.105 2.38-.022 5.618-.004 8.014-2.472-.104-5.686-.022-8.202-.036.004 2.653.069 5.592-.041 8.223 2.454-.101 5.431-.006 7.946-.032-.071 2.573-.022 5.294-.016 7.877-2.572 0-5.333.048-7.888-.047l-.011 6.205c-.004.781-.056 2.604.041 3.313l.239.137 8.488-.002q-.025 4.04.007 8.08c-5.649.099-11.599.009-17.272.009.291-9.721-.158-19.71.029-29.456.076-3.959.109-8.349-.026-12.297"/>
  <path fill="#a051ee" d="M239.006 10.435c1.578.103 3.704.043 5.329.039l8.992-.006c1.231.001 2.804-.075 3.982.008l.005 8.041-5.001-.013c.068 3.184.006 6.599.007 9.797l.001 19.108.008 4.947c-2.576-.099-5.827-.055-8.421-.014.167-3.567.035-8.218.035-11.847l-.016-21.996q-2.483-.024-4.965.037c.123-2.631-.047-5.444.044-8.102m20.214.002c1.955.152 5.973.011 8.086.019l.018 41.703c-.564.383-6.857.117-8.119.185.116-13.931-.155-27.992.015-41.907"/>
</svg>
